<svg xmlns="http://www.w3.org/2000/svg" viewBox="0 0 200 200"><defs><radialGradient id="chg" cx=".35" cy=".25" r=".95"><stop offset="0" stop-color="#fff" stop-opacity=".34"/><stop offset=".5" stop-color="#fff" stop-opacity="0"/><stop offset="1" stop-color="#2a1608" stop-opacity=".3"/></radialGradient><pattern id="chp" width="5" height="5" patternUnits="userSpaceOnUse"><path d="M0 1.2l1.25 2 1.25-2M2.5 3.7l1.25 2 1.25-2" fill="none" stroke="#2a1608" stroke-opacity=".2" stroke-width=".9"/><path d="M0 2.1l1.25 2 1.25-2M2.5 4.6l1.25 2 1.25-2" fill="none" stroke="#fff" stroke-opacity=".2" stroke-width=".7"/></pattern></defs><g stroke-width="1.5" stroke-dasharray="3.2 2.6" stroke-linecap="round" stroke-linejoin="round"><ellipse cx="100" cy="188" rx="58" ry="4" fill="#2a1608" opacity=".12" stroke="none"/><g class="fx-body" style="transform-origin:100px 120px"><circle id="ch0" cx="100" cy="114" r="38" fill="#EBCB74" stroke="#a08a4f"/><use href="#ch0" fill="url(#chg)" stroke="none"/><use href="#ch0" fill="url(#chp)" stroke="none"/><g class="fx-wing fx-wing-l" style="transform-origin:66px 120px"><ellipse id="ch1" cx="60" cy="112" rx="9" ry="17" transform="rotate(30 60 112)" fill="#D6AE52" stroke="#927638"/><use href="#ch1" fill="url(#chp)" stroke="none"/></g><g class="fx-wing fx-wing-r" style="transform-origin:134px 120px"><ellipse id="ch2" cx="140" cy="112" rx="9" ry="17" transform="rotate(-30 140 112)" fill="#D6AE52" stroke="#927638"/><use href="#ch2" fill="url(#chp)" stroke="none"/></g></g><g class="fx-head" style="transform-origin:100px 110px"><path id="ch3" d="M100 108L116 114L100 122Z" fill="#DC8F4E" stroke="#966135"/><use href="#ch3" fill="url(#chp)" stroke="none"/><path d="M101 115h10" fill="none" stroke="#9a6437" stroke-width="1.2" stroke-dasharray="0"/><g class="fx-eyes" style="transform-origin:100px 100px"><circle cx="88" cy="100" r="4.6" fill="#231a16"/><circle cx="86.4" cy="98.2" r="1.7" fill="#fff"/><circle cx="112" cy="98" r="4.6" fill="#231a16"/><circle cx="110.4" cy="96.2" r="1.7" fill="#fff"/></g><ellipse cx="80" cy="112" rx="5" ry="3.4" fill="#E0765F" opacity=".38"/><ellipse cx="122" cy="110" rx="5" ry="3.4" fill="#E0765F" opacity=".38"/><path id="ch4" d="M66 90L76 80L86 92L98 76L110 92L122 80L132 90C132 56 66 56 66 90Z" fill="#F2E8D4" stroke="#a59e90"/><use href="#ch4" fill="url(#chp)" stroke="none"/></g><path id="ch5" d="M40 144L52 126L66 144L78 124L90 146L102 126L114 146L126 124L138 144L150 126L162 144C162 176 134 192 100 192C66 192 40 176 40 144Z" fill="#F2E8D4" stroke="#a59e90"/><use href="#ch5" fill="url(#chg)" stroke="none"/><use href="#ch5" fill="url(#chp)" stroke="none"/><path d="M64 160l8 6-6 8m58-20l-8 8 8 6" fill="none" stroke="#a9a294" stroke-width="1.4" stroke-dasharray="0"/></g></svg>