<svg xmlns="http://www.w3.org/2000/svg" viewBox="0 0 200 200"><defs><radialGradient id="dsg" cx=".35" cy=".25" r=".95"><stop offset="0" stop-color="#fff" stop-opacity=".34"/><stop offset=".5" stop-color="#fff" stop-opacity="0"/><stop offset="1" stop-color="#2a1608" stop-opacity=".3"/></radialGradient><pattern id="dsp" width="5" height="5" patternUnits="userSpaceOnUse"><path d="M0 1.2l1.25 2 1.25-2M2.5 3.7l1.25 2 1.25-2" fill="none" stroke="#2a1608" stroke-opacity=".2" stroke-width=".9"/><path d="M0 2.1l1.25 2 1.25-2M2.5 4.6l1.25 2 1.25-2" fill="none" stroke="#fff" stroke-opacity=".2" stroke-width=".7"/></pattern></defs><g stroke-width="1.5" stroke-dasharray="3.2 2.6" stroke-linecap="round" stroke-linejoin="round"><g class="fx-tail" style="transform-origin:64px 172px"><g fill="none" stroke-dasharray="0"><path d="M62 172C46 178 34 172 28 158" stroke="#8a6a44" stroke-width="12"/><path d="M62 172C46 178 34 172 28 158" stroke="#CB9C64" stroke-width="9"/><path d="M62 172C46 178 34 172 28 158" stroke="url(#dsp)" stroke-width="9"/></g><circle id="ds0" cx="28" cy="157" r="5.5" fill="#F4E6CE" stroke="#a69c8c"/><use href="#ds0" fill="url(#dsp)" stroke="none"/></g><g class="fx-body" style="transform-origin:96px 150px"><ellipse id="ds1" cx="100" cy="124" rx="28" ry="50" transform="rotate(14 100 124)" fill="#CB9C64" stroke="#8a6a44"/><use href="#ds1" fill="url(#dsg)" stroke="none"/><use href="#ds1" fill="url(#dsp)" stroke="none"/><ellipse id="ds2" cx="118" cy="132" rx="12" ry="28" transform="rotate(14 118 132)" fill="#F4E6CE" stroke="#a69c8c"/><use href="#ds2" fill="url(#dsp)" stroke="none"/><ellipse id="ds3" cx="78" cy="154" rx="24" ry="26" fill="#c39660" stroke="#856641"/><use href="#ds3" fill="url(#dsg)" stroke="none"/><use href="#ds3" fill="url(#dsp)" stroke="none"/></g><ellipse id="ds4" cx="98" cy="178" rx="22" ry="6" fill="#F4E6CE" stroke="#a69c8c"/><use href="#ds4" fill="url(#dsp)" stroke="none"/><ellipse id="ds5" cx="76" cy="178" rx="14" ry="5" fill="#CB9C64" stroke="#8a6a44"/><g class="fx-leg-fn" style="transform-origin:118px 108px"><rect id="ds6" x="114" y="118" width="14" height="62" rx="7" fill="#CB9C64" stroke="#8a6a44"/><use href="#ds6" fill="url(#dsg)" stroke="none"/><use href="#ds6" fill="url(#dsp)" stroke="none"/><rect id="ds7" x="113.6" y="166" width="14.8" height="14" rx="6" fill="#F4E6CE" stroke="#a69c8c"/><use href="#ds7" fill="url(#dsp)" stroke="none"/></g><g class="fx-neck" style="transform-origin:114px 84px"><ellipse id="ds8" cx="116" cy="82" rx="15" ry="20" transform="rotate(12 116 82)" fill="#CB9C64" stroke="#8a6a44"/><use href="#ds8" fill="url(#dsg)" stroke="none"/><use href="#ds8" fill="url(#dsp)" stroke="none"/><path d="M104 82q12 12 26 4" fill="none" stroke="#B0654A" stroke-width="4.5" stroke-dasharray="0"/><g class="fx-head" style="transform-origin:124px 62px"><circle id="ds9" cx="122" cy="58" r="20" fill="#CB9C64" stroke="#8a6a44"/><use href="#ds9" fill="url(#dsg)" stroke="none"/><use href="#ds9" fill="url(#dsp)" stroke="none"/><ellipse id="dsa" cx="135" cy="66" rx="13" ry="10" fill="#F4E6CE" stroke="#a69c8c"/><use href="#dsa" fill="url(#dsp)" stroke="none"/><ellipse cx="146" cy="62" rx="4.4" ry="3.4" fill="#2a1c16" stroke="none" /><path d="M144 66q4 5 10 0" fill="none" stroke="#5a3d2a" stroke-width="1.4" stroke-dasharray="0"/><ellipse id="dsb" cx="144" cy="72" rx="4.6" ry="6.4" transform="rotate(-10 144 72)" fill="#E39A91" stroke="#9a6963"/><use href="#dsb" fill="url(#dsp)" stroke="none"/><circle cx="127" cy="54" r="8.5" fill="#8A5A3C" stroke="none" opacity=".8"/><g class="fx-eyes" style="transform-origin:127px 54px"><circle cx="127" cy="54" r="3.9" fill="#231a16"/><circle cx="125.6" cy="52.4" r="1.5" fill="#fff"/></g><g class="fx-ear" style="transform-origin:110px 46px"><ellipse id="dsc" cx="108" cy="62" rx="8" ry="15" transform="rotate(8 108 62)" fill="#8A5A3C" stroke="#5e3d29"/><use href="#dsc" fill="url(#dsp)" stroke="none"/></g><ellipse cx="121" cy="67" rx="5" ry="3.3" fill="#E0765F" opacity=".38"/></g></g></g></svg>