<svg xmlns="http://www.w3.org/2000/svg" viewBox="0 0 200 200"><defs><radialGradient id="img" cx=".35" cy=".25" r=".95"><stop offset="0" stop-color="#fff" stop-opacity=".34"/><stop offset=".5" stop-color="#fff" stop-opacity="0"/><stop offset="1" stop-color="#2a1608" stop-opacity=".3"/></radialGradient><pattern id="imp" width="5" height="5" patternUnits="userSpaceOnUse"><path d="M0 1.2l1.25 2 1.25-2M2.5 3.7l1.25 2 1.25-2" fill="none" stroke="#2a1608" stroke-opacity=".2" stroke-width=".9"/><path d="M0 2.1l1.25 2 1.25-2M2.5 4.6l1.25 2 1.25-2" fill="none" stroke="#fff" stroke-opacity=".2" stroke-width=".7"/></pattern></defs><g stroke-width="1.5" stroke-dasharray="3.2 2.6" stroke-linecap="round" stroke-linejoin="round"><g class="fx-tail" style="transform-origin:50px 106px"><ellipse id="im0" cx="48" cy="108" rx="4.6" ry="10" transform="rotate(24 48 108)" fill="#F4E6CE" stroke="#a69c8c"/><use href="#im0" fill="url(#imp)" stroke="none"/><ellipse cx="47" cy="112" rx="1.8" ry="6" transform="rotate(24 47 112)" fill="#3A2A22" stroke="none" /></g><g class="fx-leg-bf" style="transform-origin:68.5px 143px"><rect id="im1" x="64" y="138" width="9" height="44" rx="4.5" fill="#a17046" stroke="#6d4c30"/><use href="#im1" fill="url(#imp)" stroke="none"/><rect id="im2" x="63.6" y="176.5" width="9.8" height="6" rx="2.6" fill="#3A2A22" stroke="#271d17"/></g><g class="fx-leg-ff" style="transform-origin:112.5px 143px"><rect id="im3" x="108" y="138" width="9" height="44" rx="4.5" fill="#a17046" stroke="#6d4c30"/><use href="#im3" fill="url(#imp)" stroke="none"/><rect id="im4" x="107.6" y="176.5" width="9.8" height="6" rx="2.6" fill="#3A2A22" stroke="#271d17"/></g><g class="fx-body" style="transform-origin:92px 140px"><ellipse id="im5" cx="90" cy="122" rx="42" ry="24" fill="#C98C58" stroke="#895f3c"/><use href="#im5" fill="url(#img)" stroke="none"/><use href="#im5" fill="url(#imp)" stroke="none"/><ellipse id="im6" cx="92" cy="138" rx="30" ry="7" fill="#F4E6CE" stroke="#a69c8c"/><use href="#im6" fill="url(#imp)" stroke="none"/><ellipse id="im7" cx="66" cy="122" rx="16" ry="18" fill="#cc9260" stroke="#8b6341"/><use href="#im7" fill="url(#imp)" stroke="none"/><path d="M54 112q-2 12 2 24M60 108q-2 14 2 28" fill="none" stroke="#3A2A22" stroke-width="2.4" stroke-dasharray="0"/></g><g class="fx-leg-bn" style="transform-origin:54.5px 143px"><rect id="im8" x="50" y="138" width="9" height="44" rx="4.5" fill="#C98C58" stroke="#895f3c"/><use href="#im8" fill="url(#imp)" stroke="none"/><rect id="im9" x="49.6" y="176.5" width="9.8" height="6" rx="2.6" fill="#3A2A22" stroke="#271d17"/></g><g class="fx-leg-fn" style="transform-origin:122.5px 143px"><rect id="ima" x="118" y="138" width="9" height="44" rx="4.5" fill="#C98C58" stroke="#895f3c"/><use href="#ima" fill="url(#imp)" stroke="none"/><rect id="imb" x="117.6" y="176.5" width="9.8" height="6" rx="2.6" fill="#3A2A22" stroke="#271d17"/></g><g class="fx-neck" style="transform-origin:120px 112px"><ellipse id="imc" cx="124" cy="96" rx="11" ry="28" transform="rotate(28 124 96)" fill="#C98C58" stroke="#895f3c"/><use href="#imc" fill="url(#img)" stroke="none"/><use href="#imc" fill="url(#imp)" stroke="none"/><g class="fx-head" style="transform-origin:146px 74px"><g fill="none" stroke-dasharray="0"><path d="M142 68C128 46 140 30 154 24" stroke="#3d3227" stroke-width="7.4"/><path d="M142 68C128 46 140 30 154 24" stroke="#5A4A3A" stroke-width="4.4"/><path d="M142 68C128 46 140 30 154 24" stroke="url(#imp)" stroke-width="4.4"/></g><g fill="none" stroke-dasharray="0"><path d="M148 68C140 48 154 34 166 30" stroke="#53483a" stroke-width="7.4"/><path d="M148 68C140 48 154 34 166 30" stroke="#7A6A55" stroke-width="4.4"/><path d="M148 68C140 48 154 34 166 30" stroke="url(#imp)" stroke-width="4.4"/></g><g class="fx-ear" style="transform-origin:142px 70px"><ellipse id="imd" cx="136" cy="68" rx="5.5" ry="12" transform="rotate(-62 136 68)" fill="#C98C58" stroke="#895f3c"/><use href="#imd" fill="url(#imp)" stroke="none"/><ellipse cx="136" cy="68" rx="2.6" ry="8" transform="rotate(-62 136 68)" fill="#D99C8E" stroke="none" /></g><g transform="rotate(-18 146 74)"><ellipse id="ime" cx="146" cy="74" rx="16" ry="12" fill="#C98C58" stroke="#895f3c"/><use href="#ime" fill="url(#img)" stroke="none"/><use href="#ime" fill="url(#imp)" stroke="none"/><ellipse id="imf" cx="158" cy="79" rx="9.5" ry="7" fill="#F4E6CE" stroke="#a69c8c"/><use href="#imf" fill="url(#imp)" stroke="none"/><ellipse cx="165" cy="77" rx="3.2" ry="2.6" fill="#3A2A22" stroke="none" /></g><g class="fx-eyes" style="transform-origin:150px 72px"><circle cx="150" cy="72" r="5.6" fill="#F6EEDD"/><circle cx="150" cy="72" r="3.8" fill="#231a16"/><circle cx="148.7" cy="70.5" r="1.4" fill="#fff"/></g><ellipse cx="144" cy="81" rx="4" ry="2.8" fill="#E0765F" opacity=".38"/></g></g></g></svg>