<svg xmlns="http://www.w3.org/2000/svg" viewBox="0 0 200 200"><defs><radialGradient id="lbg" cx=".35" cy=".25" r=".95"><stop offset="0" stop-color="#fff" stop-opacity=".34"/><stop offset=".5" stop-color="#fff" stop-opacity="0"/><stop offset="1" stop-color="#2a1608" stop-opacity=".3"/></radialGradient><pattern id="lbp" width="5" height="5" patternUnits="userSpaceOnUse"><path d="M0 1.2l1.25 2 1.25-2M2.5 3.7l1.25 2 1.25-2" fill="none" stroke="#2a1608" stroke-opacity=".2" stroke-width=".9"/><path d="M0 2.1l1.25 2 1.25-2M2.5 4.6l1.25 2 1.25-2" fill="none" stroke="#fff" stroke-opacity=".2" stroke-width=".7"/></pattern></defs><g stroke-width="1.5" stroke-dasharray="3.2 2.6" stroke-linecap="round" stroke-linejoin="round"><g fill="none" stroke-dasharray="0"><path d="M2 138L198 130" stroke="#5e4832" stroke-width="21"/><path d="M2 138L198 130" stroke="#8A6A4A" stroke-width="18"/><path d="M2 138L198 130" stroke="url(#lbp)" stroke-width="18"/></g><path d="M20 134l8-1M60 135l9-1M120 133l9-1M170 131l8-1" fill="none" stroke="#5a4530" stroke-width="1.6" stroke-dasharray="0"/><ellipse id="lb0" cx="14" cy="122" rx="18" ry="8" transform="rotate(-20 14 122)" fill="#849D57" stroke="#5a6b3b"/><use href="#lb0" fill="url(#lbp)" stroke="none"/><ellipse id="lb1" cx="184" cy="120" rx="14" ry="7" transform="rotate(18 184 120)" fill="#849D57" stroke="#5a6b3b"/><use href="#lb1" fill="url(#lbp)" stroke="none"/><g class="fx-tail" style="transform-origin:50px 120px"><g fill="none" stroke-dasharray="0"><path d="M52 120C32 124 26 150 38 170" stroke="#927040" stroke-width="13"/><path d="M52 120C32 124 26 150 38 170" stroke="#D6A45E" stroke-width="10"/><path d="M52 120C32 124 26 150 38 170" stroke="url(#lbp)" stroke-width="10"/></g><ellipse id="lb2" cx="39" cy="172" rx="8" ry="6" transform="rotate(30 39 172)" fill="#967342" stroke="#664e2d"/><use href="#lb2" fill="url(#lbp)" stroke="none"/></g><g class="fx-leg-bn" style="transform-origin:66px 124px"><g fill="none" stroke-dasharray="0"><path d="M66 122L62 156" stroke="#927040" stroke-width="18"/><path d="M66 122L62 156" stroke="#D6A45E" stroke-width="15"/><path d="M66 122L62 156" stroke="url(#lbp)" stroke-width="15"/></g><ellipse id="lb3" cx="61" cy="160" rx="10" ry="7" fill="#D6A45E" stroke="#927040"/><use href="#lb3" fill="url(#lbp)" stroke="none"/></g><g class="fx-body" style="transform-origin:98px 118px"><ellipse id="lb4" cx="98" cy="114" rx="52" ry="19" fill="#D6A45E" stroke="#927040"/><use href="#lb4" fill="url(#lbg)" stroke="none"/><use href="#lb4" fill="url(#lbp)" stroke="none"/><ellipse id="lb5" cx="98" cy="128" rx="34" ry="5" fill="#F2E4C6" stroke="#a59b87"/><use href="#lb5" fill="url(#lbp)" stroke="none"/><path d="M62 108a4 4 0 1 0 8 0a4 4 0 1 0 -8 0M80 104a4 4 0 1 0 8 0a4 4 0 1 0 -8 0M100 106a4 4 0 1 0 8 0a4 4 0 1 0 -8 0M118 110a4 4 0 1 0 8 0a4 4 0 1 0 -8 0M74 118a4 4 0 1 0 8 0a4 4 0 1 0 -8 0M94 118a4 4 0 1 0 8 0a4 4 0 1 0 -8 0M110 120a4 4 0 1 0 8 0a4 4 0 1 0 -8 0" fill="none" stroke="#5A3D2A" stroke-width="2.2" stroke-dasharray="0"/><path d="M65.8 109a1.2 1.2 0 1 0 2.4 0a1.2 1.2 0 1 0 -2.4 0M83.8 105a1.2 1.2 0 1 0 2.4 0a1.2 1.2 0 1 0 -2.4 0M103.8 107a1.2 1.2 0 1 0 2.4 0a1.2 1.2 0 1 0 -2.4 0M121.8 111a1.2 1.2 0 1 0 2.4 0a1.2 1.2 0 1 0 -2.4 0M77.8 119a1.2 1.2 0 1 0 2.4 0a1.2 1.2 0 1 0 -2.4 0M97.8 119a1.2 1.2 0 1 0 2.4 0a1.2 1.2 0 1 0 -2.4 0M113.8 121a1.2 1.2 0 1 0 2.4 0a1.2 1.2 0 1 0 -2.4 0" fill="#5A3D2A" stroke="none"/></g><g class="fx-leg-fn" style="transform-origin:130px 124px"><g fill="none" stroke-dasharray="0"><path d="M132 122L138 156" stroke="#927040" stroke-width="18"/><path d="M132 122L138 156" stroke="#D6A45E" stroke-width="15"/><path d="M132 122L138 156" stroke="url(#lbp)" stroke-width="15"/></g><ellipse id="lb6" cx="139" cy="160" rx="10" ry="7" fill="#D6A45E" stroke="#927040"/><use href="#lb6" fill="url(#lbp)" stroke="none"/></g><g class="fx-neck" style="transform-origin:134px 108px"><ellipse id="lb7" cx="142" cy="100" rx="16" ry="20" transform="rotate(25 142 100)" fill="#D6A45E" stroke="#927040"/><use href="#lb7" fill="url(#lbg)" stroke="none"/><use href="#lb7" fill="url(#lbp)" stroke="none"/><g class="fx-head" style="transform-origin:152px 90px"><circle id="lb8" cx="143" cy="71" r="7.5" fill="#D6A45E" stroke="#927040"/><use href="#lb8" fill="url(#lbp)" stroke="none"/><circle cx="143" cy="72" r="3.6" fill="#5A3D2A" stroke="none" /><circle id="lb9" cx="165" cy="71" r="7.5" fill="#D6A45E" stroke="#927040"/><use href="#lb9" fill="url(#lbp)" stroke="none"/><circle cx="165" cy="72" r="3.6" fill="#5A3D2A" stroke="none" /><circle id="lba" cx="154" cy="88" r="21" fill="#D6A45E" stroke="#927040"/><use href="#lba" fill="url(#lbg)" stroke="none"/><use href="#lba" fill="url(#lbp)" stroke="none"/><ellipse id="lbb" cx="165" cy="96" rx="12" ry="9" fill="#F2E4C6" stroke="#a59b87"/><use href="#lbb" fill="url(#lbp)" stroke="none"/><ellipse cx="175" cy="92" rx="3.6" ry="2.7" fill="#5A3D2A" stroke="none" /><path d="M175 94q0 4-3 6m3-6q2 4 5 4" fill="none" stroke="#5A3D2A" stroke-width="1.3" stroke-dasharray="0"/><path d="M168 96l12-2m-12 4l12 2" fill="none" stroke="#9c8b7f" stroke-width="1" stroke-dasharray="0"/><path d="M148.2 78a1.8 1.8 0 1 0 3.6 0a1.8 1.8 0 1 0 -3.6 0M158.2 76a1.8 1.8 0 1 0 3.6 0a1.8 1.8 0 1 0 -3.6 0M140.2 88a1.8 1.8 0 1 0 3.6 0a1.8 1.8 0 1 0 -3.6 0M144.2 96a1.8 1.8 0 1 0 3.6 0a1.8 1.8 0 1 0 -3.6 0M138.2 98a1.8 1.8 0 1 0 3.6 0a1.8 1.8 0 1 0 -3.6 0" fill="#5A3D2A" stroke="none"/><g class="fx-eyes" style="transform-origin:160px 85px"><circle cx="161" cy="85" r="4.2" fill="#231a16"/><circle cx="159.5" cy="83.3" r="1.6" fill="#fff"/></g><ellipse cx="152" cy="97" rx="5.5" ry="3.4" fill="#E0765F" opacity=".38"/></g></g></g></svg>