<svg xmlns="http://www.w3.org/2000/svg" viewBox="0 0 200 200"><defs><radialGradient id="opg" cx=".35" cy=".25" r=".95"><stop offset="0" stop-color="#fff" stop-opacity=".34"/><stop offset=".5" stop-color="#fff" stop-opacity="0"/><stop offset="1" stop-color="#2a1608" stop-opacity=".3"/></radialGradient><pattern id="opp" width="5" height="5" patternUnits="userSpaceOnUse"><path d="M0 1.2l1.25 2 1.25-2M2.5 3.7l1.25 2 1.25-2" fill="none" stroke="#2a1608" stroke-opacity=".2" stroke-width=".9"/><path d="M0 2.1l1.25 2 1.25-2M2.5 4.6l1.25 2 1.25-2" fill="none" stroke="#fff" stroke-opacity=".2" stroke-width=".7"/></pattern></defs><g stroke-width="1.5" stroke-dasharray="3.2 2.6" stroke-linecap="round" stroke-linejoin="round"><g class="fx-neck" style="transform-origin:100px 180px"><g fill="none" stroke-dasharray="0"><path d="M102 200C112 150 90 124 104 84" stroke="#968276" stroke-width="21"/><path d="M102 200C112 150 90 124 104 84" stroke="#DDBFAE" stroke-width="18"/><path d="M102 200C112 150 90 124 104 84" stroke="url(#opp)" stroke-width="18"/></g><g class="fx-head" style="transform-origin:112px 70px"><ellipse id="op0" cx="114" cy="68" rx="15" ry="11" fill="#DDBFAE" stroke="#968276"/><use href="#op0" fill="url(#opp)" stroke="none"/><ellipse id="op1" cx="128" cy="70" rx="8" ry="4.4" fill="#E8C3B0" stroke="#9e8578"/><use href="#op1" fill="url(#opp)" stroke="none"/><path d="M111 57l-2-7m6 7l1-8m5 9l4-6" fill="none" stroke="#857368" stroke-width="1.6" stroke-dasharray="0"/><g class="fx-eyes" style="transform-origin:113px 65px"><circle cx="114" cy="65" r="6.6" fill="#F6EEDD"/><circle cx="114" cy="65" r="4.8" fill="#231a16"/><circle cx="112.3" cy="63.1" r="1.8" fill="#fff"/><path d="M110 59l-2-3m5 2l0-4m4 4l3-3" fill="none" stroke="#231a16" stroke-width="1.3" stroke-dasharray="0"/></g><ellipse cx="110" cy="72" rx="4" ry="2.6" fill="#E0765F" opacity=".38"/></g></g><g class="fx-body" style="transform-origin:100px 190px"><path id="op2" d="M164 208Q170 220.8 153.8 229.6Q147.8 242.5 126.6 244.4Q110.4 253.1 90.9 247.6Q69.7 249.5 58.1 238.2Q38.6 232.7 38.6 219.3Q27 208 38.6 196.7Q38.6 183.3 58.1 177.8Q69.7 166.5 90.9 168.4Q110.4 162.9 126.6 171.6Q147.8 173.5 153.8 186.4Q170 195.2 164 208Z" fill="#4D423B" stroke="#342d28"/><use href="#op2" fill="url(#opg)" stroke="none"/><use href="#op2" fill="url(#opp)" stroke="none"/><path id="op3" d="M112 206Q115 215.2 103.8 220.1Q96.9 228.2 84 226Q71.1 228.2 64.2 220.1Q53 215.2 56 206Q53 196.8 64.2 191.9Q71.1 183.8 84 186Q96.9 183.8 103.8 191.9Q115 196.8 112 206Z" fill="#F1E6D0" stroke="#a49c8d"/><use href="#op3" fill="url(#opp)" stroke="none"/></g></g></svg>