<svg xmlns="http://www.w3.org/2000/svg" viewBox="0 0 200 200"><defs><radialGradient id="whg" cx=".35" cy=".25" r=".95"><stop offset="0" stop-color="#fff" stop-opacity=".34"/><stop offset=".5" stop-color="#fff" stop-opacity="0"/><stop offset="1" stop-color="#2a1608" stop-opacity=".3"/></radialGradient><pattern id="whp" width="5" height="5" patternUnits="userSpaceOnUse"><path d="M0 1.2l1.25 2 1.25-2M2.5 3.7l1.25 2 1.25-2" fill="none" stroke="#2a1608" stroke-opacity=".2" stroke-width=".9"/><path d="M0 2.1l1.25 2 1.25-2M2.5 4.6l1.25 2 1.25-2" fill="none" stroke="#fff" stroke-opacity=".2" stroke-width=".7"/></pattern></defs><g stroke-width="1.5" stroke-dasharray="3.2 2.6" stroke-linecap="round" stroke-linejoin="round"><g class="fx-tail" style="transform-origin:48px 110px"><g fill="none" stroke-dasharray="0"><path d="M50 112C42 98 50 88 46 76" stroke="#584d40" stroke-width="7"/><path d="M50 112C42 98 50 88 46 76" stroke="#82715e" stroke-width="4"/><path d="M50 112C42 98 50 88 46 76" stroke="url(#whp)" stroke-width="4"/></g><path id="wh0" d="M40 78L46 62L52 78Z" fill="#5E4C3E" stroke="#40342a"/></g><g class="fx-leg-bf" style="transform-origin:68.5px 151px"><rect id="wh1" x="62" y="146" width="13" height="36" rx="6.5" fill="#867460" stroke="#5b4f41"/><use href="#wh1" fill="url(#whp)" stroke="none"/><rect id="wh2" x="61.6" y="176.5" width="13.8" height="6" rx="2.6" fill="#5E4C3E" stroke="#40342a"/></g><g class="fx-leg-ff" style="transform-origin:114.5px 151px"><rect id="wh3" x="108" y="146" width="13" height="36" rx="6.5" fill="#867460" stroke="#5b4f41"/><use href="#wh3" fill="url(#whp)" stroke="none"/><rect id="wh4" x="107.6" y="176.5" width="13.8" height="6" rx="2.6" fill="#5E4C3E" stroke="#40342a"/></g><g class="fx-body" style="transform-origin:88px 140px"><ellipse id="wh5" cx="88" cy="128" rx="44" ry="27" fill="#A38D75" stroke="#6f6050"/><use href="#wh5" fill="url(#whg)" stroke="none"/><use href="#wh5" fill="url(#whp)" stroke="none"/><ellipse id="wh6" cx="90" cy="146" rx="28" ry="8" fill="#b5a491" stroke="#7b7063"/><use href="#wh6" fill="url(#whp)" stroke="none"/><path id="wh7" d="M52 116L56 98L63 112L70 94L77 109L85 92L92 107L100 91L107 107L116 93L121 110L130 100L130 116Z" fill="#5E4C3E" stroke="#40342a"/><use href="#wh7" fill="url(#whp)" stroke="none"/></g><g class="fx-leg-bn" style="transform-origin:52.5px 151px"><rect id="wh8" x="46" y="146" width="13" height="36" rx="6.5" fill="#A38D75" stroke="#6f6050"/><use href="#wh8" fill="url(#whp)" stroke="none"/><rect id="wh9" x="45.6" y="176.5" width="13.8" height="6" rx="2.6" fill="#5E4C3E" stroke="#40342a"/></g><g class="fx-leg-fn" style="transform-origin:126.5px 151px"><rect id="wha" x="120" y="146" width="13" height="36" rx="6.5" fill="#A38D75" stroke="#6f6050"/><use href="#wha" fill="url(#whp)" stroke="none"/><rect id="whb" x="119.6" y="176.5" width="13.8" height="6" rx="2.6" fill="#5E4C3E" stroke="#40342a"/></g><g class="fx-head" style="transform-origin:128px 124px"><path id="whc" d="M116 104C136 90 164 98 176 118C184 132 178 148 164 150C150 152 132 146 120 134Z" fill="#A38D75" stroke="#6f6050"/><use href="#whc" fill="url(#whp)" stroke="none"/><path id="whd" d="M132 100L136 80L148 96Z" fill="#937f69" stroke="#645647"/><use href="#whd" fill="url(#whp)" stroke="none"/><path d="M136 98L138 86L144 96Z" fill="#CBA697" stroke="none" /><ellipse id="whe" cx="177" cy="130" rx="8" ry="11" fill="#CBA697" stroke="#8a7167"/><use href="#whe" fill="url(#whp)" stroke="none"/><ellipse cx="179" cy="127" rx="1.8" ry="2.6" fill="#5E4C3E" stroke="none" /><ellipse cx="179" cy="135" rx="1.8" ry="2.6" fill="#5E4C3E" stroke="none" /><path id="whf" d="M156 152C180 156 196 138 190 108C184 128 172 138 154 140Z" fill="#F1E6CC" stroke="#a49c8b"/><use href="#whf" fill="url(#whp)" stroke="none"/><ellipse cx="147" cy="134" rx="4.4" ry="3.6" fill="#bfaf9e" stroke="none" /><ellipse cx="141" cy="112" rx="4" ry="3.4" fill="#bfaf9e" stroke="none" /><path d="M158 152l-2 6m6-6l1 6" fill="none" stroke="#F1E6CC" stroke-width="2" stroke-dasharray="0"/><g class="fx-eyes" style="transform-origin:152px 116px"><circle cx="153" cy="116" r="5.6" fill="#F6EEDD"/><circle cx="153" cy="116" r="3.8" fill="#231a16"/><circle cx="151.7" cy="114.5" r="1.4" fill="#fff"/></g><ellipse cx="148" cy="128" rx="4" ry="2.8" fill="#E0765F" opacity=".38"/></g></g></svg>