<svg xmlns="http://www.w3.org/2000/svg" viewBox="0 0 200 200"><defs><radialGradient id="elg" cx=".35" cy=".25" r=".95"><stop offset="0" stop-color="#fff" stop-opacity=".34"/><stop offset=".5" stop-color="#fff" stop-opacity="0"/><stop offset="1" stop-color="#2a1608" stop-opacity=".3"/></radialGradient><pattern id="elp" width="5" height="5" patternUnits="userSpaceOnUse"><path d="M0 1.2l1.25 2 1.25-2M2.5 3.7l1.25 2 1.25-2" fill="none" stroke="#2a1608" stroke-opacity=".2" stroke-width=".9"/><path d="M0 2.1l1.25 2 1.25-2M2.5 4.6l1.25 2 1.25-2" fill="none" stroke="#fff" stroke-opacity=".2" stroke-width=".7"/></pattern></defs><g stroke-width="1.5" stroke-dasharray="3.2 2.6" stroke-linecap="round" stroke-linejoin="round"><g class="fx-tail" style="transform-origin:46px 118px"><ellipse id="el0" cx="42" cy="130" rx="4" ry="13" transform="rotate(10 42 130)" fill="#6C757B" stroke="#495054"/><use href="#el0" fill="url(#elg)" stroke="none"/><use href="#el0" fill="url(#elp)" stroke="none"/><circle id="el1" cx="41" cy="144" r="5.5" fill="#4F5559" stroke="#363a3d"/><use href="#el1" fill="url(#elg)" stroke="none"/><use href="#el1" fill="url(#elp)" stroke="none"/></g><rect id="el2" x="58" y="148" width="24" height="34" rx="11" fill="#6C757B" stroke="#495054"/><use href="#el2" fill="url(#elg)" stroke="none"/><use href="#el2" fill="url(#elp)" stroke="none"/><rect id="el3" x="112" y="148" width="24" height="34" rx="11" fill="#6C757B" stroke="#495054"/><use href="#el3" fill="url(#elg)" stroke="none"/><use href="#el3" fill="url(#elp)" stroke="none"/><ellipse id="el4" cx="98" cy="126" rx="58" ry="38" fill="#8E979D" stroke="#61676b"/><use href="#el4" fill="url(#elg)" stroke="none"/><use href="#el4" fill="url(#elp)" stroke="none"/><rect id="el5" x="42" y="148" width="24" height="34" rx="11" fill="#8E979D" stroke="#61676b"/><use href="#el5" fill="url(#elg)" stroke="none"/><use href="#el5" fill="url(#elp)" stroke="none"/><rect id="el6" x="98" y="148" width="24" height="34" rx="11" fill="#8E979D" stroke="#61676b"/><use href="#el6" fill="url(#elg)" stroke="none"/><use href="#el6" fill="url(#elp)" stroke="none"/><g class="fx-head" style="transform-origin:140px 120px"><g class="fx-trunk" style="transform-origin:172px 126px"><path id="el7" d="M168 112C196 112 198 142 192 166C190 174 178 174 178 166C181 148 180 134 164 134Z" fill="#8E979D" stroke="#61676b"/><use href="#el7" fill="url(#elg)" stroke="none"/><use href="#el7" fill="url(#elp)" stroke="none"/></g><ellipse id="el8" cx="158" cy="108" rx="30" ry="28" fill="#8E979D" stroke="#61676b"/><use href="#el8" fill="url(#elg)" stroke="none"/><use href="#el8" fill="url(#elp)" stroke="none"/><ellipse id="el9" cx="176" cy="140" rx="4" ry="9" transform="rotate(20 176 140)" fill="#F6EBD0" stroke="#a7a08d"/><use href="#el9" fill="url(#elg)" stroke="none"/><use href="#el9" fill="url(#elp)" stroke="none"/><g class="fx-eyes" style="transform-origin:170px 102px"><circle cx="171" cy="101" r="4.6" fill="#231a16"/><circle cx="169.4" cy="99.2" r="1.7" fill="#fff"/></g><ellipse cx="172" cy="116" rx="6" ry="4" fill="#E0765F" opacity=".38"/><g class="fx-ear" style="transform-origin:144px 92px"><ellipse id="ela" cx="142" cy="112" rx="22" ry="30" transform="rotate(8 142 112)" fill="#959da3" stroke="#656b6f"/><use href="#ela" fill="url(#elg)" stroke="none"/><use href="#ela" fill="url(#elp)" stroke="none"/><ellipse cx="144" cy="114" rx="14" ry="22" transform="rotate(8 144 114)" fill="#C4A9A3" opacity=".5"/></g></g></g></svg>